<?xml version="1.0" encoding="UTF-8" standalone="no"?>
<!-- Created with Inkscape (http://www.inkscape.org/) -->

<svg
   version="1.1"
   id="svg157"
   width="1266.6667"
   height="533.33331"
   viewBox="0 0 1266.6667 533.33331"
   xmlns="http://www.w3.org/2000/svg"
   xmlns:svg="http://www.w3.org/2000/svg">
  <defs
     id="defs161" />
  <path
     style="display:inline;fill:#020202;stroke:none;stroke-width:0.391037"
     d="m 858.1801,32.579367 c -12.2512,1.608302 -24.51806,2.093803 -36.75753,4.301352 -32.40919,5.845427 -66.02278,18.63259 -90.72071,40.959508 -38.37252,34.691673 -50.08018,93.075133 -26.09785,139.533913 9.74465,18.88125 25.1359,34.42147 42.91246,45.87183 40.06571,25.80613 88.91412,33.48728 135.69004,32.34154 21.69867,-0.53181 43.31523,-2.36304 64.52119,-7.39022 10.83174,-2.56833 21.40929,-6.07163 31.67406,-10.37813 5.27504,-2.21288 10.54631,-5.75881 16.03252,-7.29559 3.77346,-1.05775 6.72182,3.15333 8.43462,5.89724 4.5595,7.30458 8.6224,21.66934 19.7122,15.04361 3.187,-1.90241 1.9552,-4.68503 1.1262,-7.6139 -1.8183,-6.41927 -2.8115,-12.95077 -3.6914,-19.55187 -2.2328,-16.77356 -1.7284,-33.93151 -1.7284,-50.83489 0,-8.9528 -1.2474,-19.08145 1.3452,-27.76366 4.3405,-14.54112 23.5913,-11.27596 35.0213,-12.62504 5.1304,-0.60493 13.702,1.96145 14.0617,-5.36268 0.1095,-2.24457 0.4106,-5.61609 -1.6345,-7.13957 -1.9278,-1.43354 -5.4941,-0.29094 -7.7347,-0.29015 -7.1873,0.003 -14.3159,0.39104 -21.5071,0.39104 -24.0722,0 -48.67243,2.00367 -72.73291,0.35623 -9.16594,-0.628 -18.5743,-0.74727 -27.76368,-0.74727 -2.79592,0 -7.60569,-1.13714 -10.15134,-0.15485 -3.83999,1.48399 -3.85563,10.95648 -0.008,12.43225 2.68252,1.02804 6.53033,0.0758 9.37709,0.2706 10.05357,0.68862 22.8835,-0.74688 31.67401,5.18946 5.8187,3.92915 6.11195,10.36445 6.71411,16.67384 1.28262,13.49745 0.32457,27.49229 0.32457,41.05895 0,4.8602 1.963,15.14997 -1.963,18.5293 -16.82631,14.4813 -40.59359,21.48244 -62.16714,24.5908 -49.32939,7.10828 -108.89223,3.47045 -144.61743,-36.08143 -29.00716,-32.11592 -33.26947,-83.47322 -19.48539,-123.17683 2.81938,-8.11089 6.80796,-16.05599 11.76241,-23.071203 31.30255,-44.318707 88.3041,-52.757886 138.6541,-49.305724 18.30447,1.254996 36.88266,3.906932 53.96318,10.988579 20.57641,8.531738 37.05862,23.997354 46.61946,44.182708 2.82716,5.96958 5.25546,12.11395 7.34366,18.37875 0.9581,2.87882 1.5681,7.27956 3.4138,9.69226 2.7724,3.62648 12.345,1.9329 13.8857,-2.26841 0.6647,-1.80932 -0.5436,-4.16689 -1.1457,-5.85969 -1.5251,-4.27952 -2.8859,-8.58757 -4.2936,-12.90424 -5.0875,-15.604736 -9.1738,-31.553206 -12.087,-47.706571 -0.8368,-4.657026 -1.5525,-9.372393 -2.053,-14.077352 -0.2072,-1.925193 -0.09,-4.206859 -2.0451,-5.252146 -0.9189,-0.492584 -2.07636,-0.743636 -3.10476,-0.886794 -11.12893,-1.550576 -5.40024,15.689209 -15.25043,13.801322 -3.95345,-0.758031 -8.02409,-3.56787 -11.73119,-5.148985 -7.39835,-3.156143 -14.98059,-5.788572 -22.68014,-8.097417 -19.6691,-5.899739 -39.8701,-7.916513 -60.21969,-9.3104 -9.8737,-0.676337 -21.04955,-1.482424 -30.89197,-0.19007 M 160.96011,85.985532 h 0.39104 c 8.01979,18.611438 19.93627,36.140858 29.59803,53.963178 19.81934,36.55888 40.11771,73.04386 61.51372,108.70843 7.55407,12.59181 15.25086,25.06629 22.99614,37.53961 1.69749,2.73413 6.18895,11.48242 9.84946,11.48242 1.5137,0 2.52492,-1.79603 3.25851,-2.8796 2.02245,-2.98713 3.8263,-6.16118 5.44246,-9.3849 6.6887,-13.34259 13.6605,-26.54089 20.33395,-39.88582 19.36887,-38.73305 39.9703,-76.87252 59.83306,-115.35608 6.30979,-12.22461 12.61174,-24.45001 18.76551,-36.757519 2.81507,-5.630554 6.76338,-11.546948 8.50624,-17.59669 h 0.39103 v 123.176819 39.10375 c 0,7.44379 0.75353,15.34666 -0.70699,22.68018 -3.17132,15.92539 -23.10994,14.55793 -35.6595,14.86529 -2.98559,0.0731 -9.50262,-0.65851 -12.03849,0.8462 -2.59297,1.53874 -2.38455,6.80484 -1.7714,9.31452 0.99558,4.07383 4.77769,2.73883 7.94431,2.73765 7.57089,-0.004 15.09759,-0.39103 22.68019,-0.39103 h 86.02827 c 6.66719,0 13.27572,0.35936 19.94292,0.39143 2.88194,0.0137 5.79908,1.15042 6.95264,-2.34819 0.91894,-2.79044 1.10273,-8.63645 -2.26802,-9.92961 -2.2641,-0.86811 -5.41586,-0.10675 -7.81293,-0.2706 -10.6284,-0.72811 -27.31945,1.44801 -35.46672,-7.07191 -4.12583,-4.31432 -4.41911,-10.74337 -4.41911,-16.35554 V 224.80385 116.48646 83.248271 c 0,-5.313022 -0.94005,-11.663474 0.45322,-16.814614 4.06092,-15.012045 24.86255,-13.772226 37.08638,-14.071642 6.29962,-0.154306 14.85943,2.388733 14.85943,-6.26231 0,-1.043757 0.0313,-2.104565 -0.20724,-3.128296 -0.82119,-3.541906 -3.43723,-3.128304 -6.44039,-3.128304 -4.83714,0 -9.65472,0.332269 -14.4684,0.389511 -17.97911,0.213782 -36.00087,-1.171588 -53.96318,-1.171588 h -13.29527 c -1.93877,0 -4.19115,-0.284476 -5.82451,0.983031 -1.83084,1.420642 -2.61135,4.078015 -3.68122,6.055646 -2.24182,4.145665 -4.51141,8.299848 -6.6234,12.513199 -6.79115,13.547111 -14.16964,26.809534 -21.12033,40.27687 -15.13238,29.318036 -30.73048,58.412006 -46.1272,87.592406 -9.4631,17.93415 -18.159,36.49631 -28.4601,53.96318 -6.71685,-14.2017 -16.57217,-27.45201 -24.46956,-41.05895 -18.96064,-32.67001 -37.99126,-65.3146 -55.96334,-98.54145 -7.63033,-14.106676 -15.13981,-28.276314 -22.31339,-42.623089 -1.92978,-3.8595 -3.85876,-7.770778 -5.57111,-11.731124 -0.81806,-1.892199 -1.66543,-5.023547 -3.28237,-6.363086 -1.60012,-1.32577 -4.1708,-1.066553 -6.10253,-1.066633 -4.85043,-2.72e-4 -9.64025,0.02534 -14.46838,0.356043 -16.98746,1.163493 -34.59198,1.017986 -51.61698,0.815545 -4.94235,-0.05877 -9.89121,-0.389511 -14.859431,-0.389511 -2.705698,0 -5.047465,-0.35643 -5.947905,2.737534 -0.739299,2.540223 -1.010094,7.875346 1.687522,9.373801 2.433583,1.351778 7.387794,0.401864 10.125954,0.401864 9.81528,0 21.58293,-0.379543 30.89197,3.153996 2.557,0.970633 8.11481,2.92347 8.86951,5.845893 1.48673,5.755878 0.12436,13.591138 0.12436,19.545858 v 42.623079 c 0,44.01205 1.07222,88.17349 -0.006,132.17069 -0.46651,19.04275 -19.54133,19.94292 -34.40544,19.94292 -3.40743,0 -6.7576,0.39103 -10.166981,0.39103 -1.45916,0 -3.36499,-0.3054 -4.608887,0.62684 -2.431475,1.82262 -2.220702,6.15062 -1.641692,8.75806 0.956556,4.30728 3.949079,3.13378 7.42369,3.1283 6.01588,-0.01 11.97064,-0.39103 17.98773,-0.39103 h 71.95091 c 4.70419,0 9.3634,0.3836 14.07735,0.39103 1.6408,0.003 3.91156,0.69057 5.45303,0.095 1.56805,-0.60571 2.11082,-2.48739 2.29577,-4.00539 0.28233,-2.32003 0.38479,-6.29531 -1.64626,-7.92164 -2.29305,-1.83553 -10.18458,-1.05776 -13.14121,-1.07184 -11.69006,-0.0563 -32.31769,1.22278 -36.01612,-13.29566 -1.79917,-7.06175 -1.13245,-14.67564 -1.13245,-21.8981 V 204.07887 85.985532 M 595.4026,248.04673 c -3.14786,0.49544 -6.24878,1.69984 -8.99387,3.29958 -22.6528,13.19322 -8.85309,50.41921 16.81462,46.4099 3.71485,-0.5803 7.39451,-1.90357 10.55801,-3.953 2.65906,-1.72213 5.1265,-4.20326 6.8979,-6.82438 12.45846,-18.44799 -3.55062,-42.35211 -25.27666,-38.9321 m 552.145,0.01 c -25.2454,4.46096 -27.4274,42.33216 -2.3463,49.02868 3.973,1.06088 8.0906,1.10781 12.1222,0.34958 25.8047,-4.85003 26.2778,-43.28941 0.7821,-49.00247 -3.2847,-0.73594 -7.2264,-0.96469 -10.558,-0.37579 M 76.104698,365.57736 v 3.91038 H 1190.5621 v -3.91038 H 76.104962 m 378.915408,96.58628 h -36.75753 v 5.08349 h 31.28301 c -0.0102,3.69139 -0.82236,7.49618 -2.12139,10.94905 -10.2225,27.16538 -52.19412,21.18642 -58.09253,-5.86557 -2.31221,-10.60493 -0.29055,-22.64889 7.10084,-30.89196 10.68081,-11.90709 33.27886,-13.36175 45.27707,-2.61995 4.50437,4.03551 5.80652,9.36143 7.83601,14.74211 l 4.69245,-1.95518 c -1.54539,-5.97115 -3.35824,-11.50041 -7.85556,-15.99735 -12.79866,-12.79866 -38.41006,-11.77414 -51.58216,-0.31283 -9.52176,8.28609 -12.43225,21.7847 -11.27361,33.90687 2.54331,26.61792 35.36974,41.41087 57.41605,25.97662 10.64053,-7.44927 14.07735,-20.68198 14.07735,-33.0153 m 366.4022,0 h -36.75753 v 5.08349 h 31.28301 c -0.0117,3.69139 -0.82118,7.49618 -2.12334,10.94905 -10.23736,27.20839 -52.14877,21.1434 -58.09254,-5.86557 -2.32668,-10.58538 -0.28155,-22.66062 7.10124,-30.89196 10.67533,-11.90319 33.28903,-13.36957 45.27824,-2.61995 4.48912,4.02378 5.81473,9.38099 7.8364,14.74211 l 4.69244,-1.95518 c -1.53677,-5.94378 -3.38247,-11.52388 -7.85593,-15.99735 -12.79867,-12.79866 -38.41162,-11.77414 -51.58177,-0.31283 -9.52177,8.28609 -12.43109,21.7847 -11.27362,33.90687 2.54566,26.62183 35.36544,41.41479 57.41605,25.97662 10.64013,-7.44927 14.07735,-20.68198 14.07735,-33.0153 M 1117.438,426.74346 c -7.4493,0.98151 -14.7187,2.56912 -20.7251,7.44927 -15.0041,12.19254 -17.6749,39.31882 -4.9661,54.17042 8.552,9.99492 21.7964,13.98351 34.685,12.39981 5.975,-0.73124 11.7976,-2.56912 16.8146,-5.9555 16.4979,-11.14066 19.38,-38.48983 7.8521,-54.15089 -7.4024,-10.04966 -21.2881,-15.53983 -33.6605,-13.91311 m -928.71423,71.78667 c 1.5536,0 4.28774,0.52399 5.61648,-0.40277 1.48868,-1.04016 2.29344,-3.883 3.08294,-5.46279 l 6.64763,-13.29528 c 1.33853,-2.6786 2.69386,-8.05146 6.16159,-8.20396 8.17659,-0.35976 16.4486,-0.008 24.6338,-0.008 2.37242,0 7.30028,-0.93067 9.2324,0.62566 1.61889,1.30606 2.46627,4.19974 3.37739,6.02197 l 7.03868,14.07735 c 0.89078,1.78314 1.84218,5.13824 3.57526,6.24488 1.34634,0.86028 3.78641,0.40277 5.32201,0.40277 -1.76593,-6.11583 -6.03722,-12.26685 -8.89727,-17.98773 L 236.13591,443.7847 c -1.97787,-3.9573 -5.66105,-16.49397 -11.00458,-15.58285 -1.86251,0.31674 -2.52532,2.76073 -3.26595,4.24276 l -6.2566,12.5132 c -8.87889,17.75711 -19.0357,35.35772 -26.88501,53.57224 m 279.98291,0 c 1.4664,0 3.96513,0.47707 5.22427,-0.40277 1.48985,-1.04016 2.29539,-3.883 3.08529,-5.46279 l 6.84315,-13.68631 c 1.42337,-2.84285 2.63559,-7.65261 6.35436,-7.81293 8.04756,-0.34803 16.18896,-0.008 24.24434,-0.008 2.46744,0 7.24201,-0.90721 9.30278,0.62566 1.71274,1.27869 2.57693,4.16454 3.50369,6.02197 l 7.23419,14.4684 c 0.83682,1.67364 1.70884,4.75501 3.28081,5.85383 1.25914,0.87983 3.75787,0.40277 5.22426,0.40277 -1.74402,-6.04936 -5.6896,-11.96575 -8.50507,-17.59669 -6.07671,-12.14954 -12.30594,-24.22478 -18.37876,-36.36649 l -6.2566,-12.5132 c -0.94631,-1.88872 -1.58371,-3.89474 -4.00813,-3.89474 -2.42444,0 -3.06183,2.00602 -4.00814,3.89474 l -6.2566,12.5132 c -6.07281,12.14562 -12.30204,24.21695 -18.37877,36.36649 -2.81547,5.63094 -6.76103,11.54733 -8.50507,17.59669 m 152.8957,0 c 1.53677,0 3.97685,0.45751 5.32202,-0.40277 1.56414,-0.99715 2.38533,-3.86345 3.18304,-5.4628 L 636.9506,478.978 c 1.36863,-2.74118 2.58866,-7.65651 6.15884,-7.81293 8.17659,-0.35585 16.45095,-0.008 24.63537,-0.008 2.3736,0 7.30067,-0.93067 9.2324,0.62566 1.61889,1.30606 2.46744,4.19974 3.37856,6.02197 l 7.03868,14.07736 c 0.89156,1.78313 1.84178,5.14215 3.57408,6.24487 1.34517,0.86028 3.78524,0.40277 5.32202,0.40277 -7.66433,-18.41396 -17.96426,-36.12014 -26.88383,-53.96318 l -6.2566,-12.5132 c -1.04798,-2.08815 -1.76749,-3.96903 -4.39527,-3.90256 -2.3384,0.0626 -2.90149,2.06859 -3.81652,3.90256 l -6.25661,12.5132 c -8.93912,17.87432 -19.40328,35.52185 -27.07934,53.96318 m 213.50651,0 c 1.46639,0 3.96512,0.47706 5.22426,-0.40277 1.57197,-1.09882 2.44399,-4.18019 3.28081,-5.85383 l 7.23419,-14.4684 c 0.92676,-1.85742 1.79095,-4.74328 3.50369,-6.02197 2.06077,-1.53286 6.83534,-0.62566 9.30279,-0.62566 8.05537,0 16.19677,-0.3402 24.24433,0.008 3.71877,0.16032 4.93099,4.97009 6.35436,7.81293 l 6.84316,13.68631 c 0.78989,1.5798 1.59543,4.42264 3.08528,5.4628 1.25914,0.87983 3.75787,0.40277 5.22427,0.40277 -1.74404,-6.04936 -5.6896,-11.96575 -8.50507,-17.59669 -6.07673,-12.14954 -12.30986,-24.22478 -18.37877,-36.36649 l -6.2566,-12.5132 c -0.94631,-1.88872 -1.5837,-3.89474 -4.00814,-3.89474 -2.42442,0 -3.06182,2.00602 -4.00813,3.89474 l -6.2566,12.5132 c -6.07282,12.14562 -12.30204,24.21695 -18.37876,36.36649 -2.81547,5.63094 -6.76105,11.54733 -8.50507,17.59669 M 87.836086,429.31649 v 69.21364 h 5.474524 v -56.70044 h 0.391042 c 6.289717,15.10187 16.214298,29.49987 24.189588,43.7962 1.95284,3.49979 5.16052,13.2679 9.82482,12.88078 2.03339,-0.16815 2.62698,-1.91609 3.5252,-3.49588 1.91569,-3.37074 3.73401,-6.79232 5.64032,-10.16698 8.06828,-14.28069 17.14192,-28.54964 24.07853,-43.40516 h 0.39104 v 57.09148 h 5.0835 v -69.21364 c -7.38906,-0.43014 -9.63283,8.33692 -12.78459,14.07735 -8.62121,15.69624 -19.23632,31.27127 -26.31918,47.70657 -3.66519,-5.04438 -6.30939,-10.97641 -9.33054,-16.42357 -5.6399,-10.16698 -11.25883,-20.34568 -16.9236,-30.50093 -3.292351,-5.90075 -5.553443,-15.30912 -13.240654,-14.85942 m 197.082934,0 v 69.21364 h 5.47452 v -60.61082 c 15.25477,15.25438 29.75719,31.24782 44.96972,46.53347 5.43776,5.4628 10.81961,14.66782 19.16044,14.07735 v -69.21364 h -5.47452 v 61.39289 c -15.25555,-15.25438 -29.71886,-31.283 -44.96932,-46.53347 -5.45967,-5.45888 -10.9338,-14.85942 -19.16084,-14.85942 m 260.82206,0 v 5.08348 h 34.02028 v 64.13016 h 5.08349 v -64.13016 h 34.02027 l 0.39103,-5.08348 h -73.51507 m 385.17201,0 v 69.21364 h 59.04668 v -5.08349 h -53.57216 v -64.13015 h -5.47452 m 80.94471,0 v 69.21364 h 59.0467 l -0.4028,-4.45783 -3.5076,-0.62566 h -8.9939 -41.0589 v -64.13015 h -5.0835 m 106.7532,2.45962 c 11.0899,-1.30997 23.2902,4.21148 29.2927,13.57292 8.9273,13.91702 5.8147,36.04975 -8.1766,45.45811 -4.1802,2.81156 -9.119,4.26622 -14.0774,4.87233 -11.0976,1.36472 -22.7075,-2.09988 -29.9808,-10.83566 -10.5346,-12.64615 -8.6459,-35.38498 3.7813,-46.02511 5.5019,-4.7081 12.1847,-6.22141 19.1608,-7.04259 m -891.95657,3.79698 14.85942,30.50092 h -30.89197 l 15.25047,-30.50092 h 0.78208 m 279.59186,0 15.25047,30.50092 h -31.28301 l 15.25046,-30.50092 h 0.78208 m 153.28673,0 14.85943,30.50092 h -30.89197 l 5.37677,-10.94904 9.87369,-19.55188 h 0.78208 m 213.11548,0 15.25046,30.50092 h -31.28301 l 15.25047,-30.50092 z"
     id="path325" />
</svg>
